<svg width="256" height="256" viewBox="0 0 256 256" fill="none" xmlns="http://www.w3.org/2000/svg">
  <rect width="256" height="256" rx="44" fill="#F8FAFC"/>
  <ellipse cx="128" cy="142" rx="60" ry="50" fill="#6B4F3A"/>
  <ellipse cx="128" cy="110" rx="38" ry="34" fill="#7B5B45"/>
  <circle cx="102" cy="84" r="10" fill="#7B5B45"/>
  <circle cx="154" cy="84" r="10" fill="#7B5B45"/>
  <ellipse cx="128" cy="126" rx="26" ry="21" fill="#FAFAF9"/>
  <circle cx="113" cy="110" r="5.5" fill="#FAFAF9"/>
  <circle cx="143" cy="110" r="5.5" fill="#FAFAF9"/>
  <circle cx="113" cy="110" r="2.5" fill="#111827"/>
  <circle cx="143" cy="110" r="2.5" fill="#111827"/>
  <ellipse cx="128" cy="122" rx="8.5" ry="6.5" fill="#2B211B"/>
  <rect x="121" y="128" width="6" height="17" rx="2" fill="#FFFFFF"/>
  <rect x="129" y="128" width="6" height="17" rx="2" fill="#FFFFFF"/>
  <path d="M116 149C120 153 125 155 128 155C131 155 136 153 140 149" stroke="#E7E5E4" stroke-width="5" stroke-linecap="round"/>
  <path d="M172 168C194 176 208 190 208 208C188 208 170 202 154 192L172 168Z" fill="#334155"/>
</svg>
