<svg width="960" height="240" viewBox="0 0 960 240" fill="none" xmlns="http://www.w3.org/2000/svg">
  <defs>
    <linearGradient id="bridgeSlateC" x1="38" y1="42" x2="220" y2="196" gradientUnits="userSpaceOnUse">
      <stop stop-color="#334155"/>
      <stop offset="1" stop-color="#06B6D4"/>
    </linearGradient>
    <linearGradient id="bridgeSlateTextC" x1="258" y1="58" x2="744" y2="178" gradientUnits="userSpaceOnUse">
      <stop stop-color="#0F172A"/>
      <stop offset="1" stop-color="#475569"/>
    </linearGradient>
  </defs>

  <rect width="960" height="240" rx="28" fill="#F8FAFC"/>

  <g transform="translate(24 24)">
    <rect x="20" y="138" width="188" height="18" rx="9" fill="#D4DCE5"/>
    <rect x="38" y="82" width="24" height="74" rx="10" fill="url(#bridgeSlateC)"/>
    <rect x="166" y="82" width="24" height="74" rx="10" fill="url(#bridgeSlateC)"/>
    <path d="M50 118C70 66 104 38 114 38C124 38 158 66 178 118" stroke="url(#bridgeSlateC)" stroke-width="22" stroke-linecap="round"/>
    <path d="M78 116V152" stroke="#94A3B8" stroke-width="6" stroke-linecap="round"/>
    <path d="M114 92V152" stroke="#94A3B8" stroke-width="6" stroke-linecap="round"/>
    <path d="M150 116V152" stroke="#94A3B8" stroke-width="6" stroke-linecap="round"/>
    <circle cx="38" cy="147" r="12" fill="#334155"/>
    <circle cx="114" cy="38" r="12" fill="#06B6D4"/>
    <circle cx="190" cy="147" r="12" fill="#334155"/>

    <g transform="translate(56 150) scale(0.72)">
      <path d="M0 18C0 2 12 -10 28 -10H42C60 -10 74 4 74 22C74 37 64 50 48 54L34 58L22 54C8 50 0 36 0 18Z" fill="#334155"/>
      <rect x="20" y="46" width="18" height="16" rx="6" fill="#F8FAFC"/>
      <rect x="22" y="48" width="6" height="12" rx="2" fill="#CBD5E1"/>
      <rect x="30" y="48" width="6" height="12" rx="2" fill="#CBD5E1"/>
      <circle cx="22" cy="20" r="4" fill="#F8FAFC"/>
      <circle cx="40" cy="20" r="4" fill="#F8FAFC"/>
      <circle cx="22" cy="20" r="2" fill="#0F172A"/>
      <circle cx="40" cy="20" r="2" fill="#0F172A"/>
      <path d="M24 30C28 32 34 32 38 30" stroke="#E2E8F0" stroke-width="3" stroke-linecap="round"/>
      <path d="M-2 54C-10 62 -8 72 2 76L18 82C30 86 38 82 40 72L-2 54Z" fill="#0F172A"/>
      <rect x="60" y="12" width="18" height="6" rx="3" transform="rotate(-20 60 12)" fill="#06B6D4"/>
    </g>
  </g>

  <g transform="translate(270 0)">
    <text x="0" y="116" font-size="78" font-family="Segoe UI, Arial, sans-serif" font-weight="700" fill="url(#bridgeSlateTextC)">PipeBridge</text>
    <text x="3" y="164" font-size="26" font-family="Segoe UI, Arial, sans-serif" font-weight="500" fill="#5B6778">
      Unofficial Python SDK for Pipefy
    </text>
  </g>
</svg>
