<svg width="960" height="240" viewBox="0 0 960 240" fill="none" xmlns="http://www.w3.org/2000/svg">
  <defs>
    <linearGradient id="pbfBridge" x1="38" y1="42" x2="220" y2="196" gradientUnits="userSpaceOnUse">
      <stop stop-color="#334155"/>
      <stop offset="1" stop-color="#06B6D4"/>
    </linearGradient>
    <linearGradient id="pbfText" x1="300" y1="58" x2="780" y2="178" gradientUnits="userSpaceOnUse">
      <stop stop-color="#0F172A"/>
      <stop offset="1" stop-color="#475569"/>
    </linearGradient>
  </defs>

  <rect width="960" height="240" rx="28" fill="#F8FAFC"/>

  <g transform="translate(26 26)">
    <rect x="20" y="138" width="188" height="18" rx="9" fill="#D4DCE5"/>
    <rect x="38" y="82" width="24" height="74" rx="10" fill="url(#pbfBridge)"/>
    <rect x="166" y="82" width="24" height="74" rx="10" fill="url(#pbfBridge)"/>
    <path d="M50 118C70 66 104 38 114 38C124 38 158 66 178 118" stroke="url(#pbfBridge)" stroke-width="22" stroke-linecap="round"/>
    <path d="M78 116V152" stroke="#94A3B8" stroke-width="6" stroke-linecap="round"/>
    <path d="M114 92V152" stroke="#94A3B8" stroke-width="6" stroke-linecap="round"/>
    <path d="M150 116V152" stroke="#94A3B8" stroke-width="6" stroke-linecap="round"/>
    <circle cx="38" cy="147" r="12" fill="#334155"/>
    <circle cx="114" cy="38" r="12" fill="#06B6D4"/>
    <circle cx="190" cy="147" r="12" fill="#334155"/>

    <g transform="translate(194 84)">
      <ellipse cx="40" cy="56" rx="32" ry="28" fill="#5B4636"/>
      <ellipse cx="56" cy="36" rx="18" ry="16" fill="#6E5644"/>
      <circle cx="64" cy="20" r="5" fill="#6E5644"/>
      <ellipse cx="70" cy="36" rx="9" ry="7" fill="#2B211B"/>
      <circle cx="76" cy="34" r="2.5" fill="#0F172A"/>
      <rect x="72" y="39" width="6" height="12" rx="2" fill="#F8FAFC"/>
      <rect x="79" y="39" width="6" height="12" rx="2" fill="#F8FAFC"/>
      <path d="M20 74C14 86 10 98 12 110C20 104 30 100 40 98L34 76L20 74Z" fill="#0F172A"/>
      <path d="M44 80L42 104" stroke="#4B382D" stroke-width="8" stroke-linecap="round"/>
      <path d="M58 78L58 102" stroke="#4B382D" stroke-width="8" stroke-linecap="round"/>
      <path d="M18 58C4 58 -4 66 -8 78" stroke="#5B4636" stroke-width="8" stroke-linecap="round"/>
      <path d="M30 28C24 24 18 20 14 14" stroke="#5B4636" stroke-width="8" stroke-linecap="round"/>
      <path d="M4 24L18 12L30 24" stroke="#06B6D4" stroke-width="8" stroke-linecap="round" stroke-linejoin="round"/>
      <path d="M18 12V42" stroke="#06B6D4" stroke-width="8" stroke-linecap="round"/>
    </g>
  </g>

  <g transform="translate(302 0)">
    <text x="0" y="116" font-size="78" font-family="Segoe UI, Arial, sans-serif" font-weight="700" fill="url(#pbfText)">PipeBridge</text>
    <text x="3" y="164" font-size="26" font-family="Segoe UI, Arial, sans-serif" font-weight="500" fill="#5B6778">
      Unofficial Python SDK for Pipefy
    </text>
  </g>
</svg>
