<svg width="256" height="256" viewBox="0 0 256 256" fill="none" xmlns="http://www.w3.org/2000/svg">
  <rect width="256" height="256" rx="44" fill="#F8FAFC"/>
  <ellipse cx="122" cy="156" rx="60" ry="56" fill="#8B5E3C"/>
  <ellipse cx="136" cy="114" rx="46" ry="40" fill="#A97148"/>
  <circle cx="106" cy="80" r="10" fill="#4A2A1D"/>
  <circle cx="164" cy="84" r="10" fill="#4A2A1D"/>
  <ellipse cx="138" cy="122" rx="30" ry="25" fill="#C88956"/>
  <ellipse cx="142" cy="108" rx="16" ry="11" fill="#4A2A1D"/>
  <circle cx="120" cy="98" r="6.5" fill="#FFFFFF"/>
  <circle cx="154" cy="100" r="6.5" fill="#FFFFFF"/>
  <circle cx="120" cy="98" r="3" fill="#2A1A14"/>
  <circle cx="154" cy="100" r="3" fill="#2A1A14"/>
  <rect x="132" y="118" width="8" height="22" rx="2.5" fill="#FFFFFF"/>
  <rect x="144" y="118" width="8" height="22" rx="2.5" fill="#FFFFFF"/>
  <path d="M124 144C130 149 136 151 141 151C146 151 150 149 156 144" stroke="#7B5133" stroke-width="4.5" stroke-linecap="round"/>
  <path d="M118 128L92 118" stroke="#6A4229" stroke-width="3" stroke-linecap="round"/>
  <path d="M120 136L90 136" stroke="#6A4229" stroke-width="3" stroke-linecap="round"/>
  <path d="M164 128L188 118" stroke="#6A4229" stroke-width="3" stroke-linecap="round"/>
  <path d="M164 136L194 136" stroke="#6A4229" stroke-width="3" stroke-linecap="round"/>
  <path d="M96 180C90 194 88 204 90 214" stroke="#5A3824" stroke-width="10" stroke-linecap="round"/>
  <path d="M162 182C168 196 170 204 168 214" stroke="#5A3824" stroke-width="10" stroke-linecap="round"/>
  <path d="M56 174C34 184 20 198 22 218C46 218 70 212 88 200L56 174Z" fill="#334155"/>
</svg>
