<svg width="960" height="240" viewBox="0 0 960 240" fill="none" xmlns="http://www.w3.org/2000/svg">
  <defs>
    <linearGradient id="pbsBridge" x1="38" y1="42" x2="220" y2="196" gradientUnits="userSpaceOnUse">
      <stop stop-color="#334155"/>
      <stop offset="1" stop-color="#06B6D4"/>
    </linearGradient>
    <linearGradient id="pbsText" x1="300" y1="58" x2="780" y2="178" gradientUnits="userSpaceOnUse">
      <stop stop-color="#0F172A"/>
      <stop offset="1" stop-color="#475569"/>
    </linearGradient>
  </defs>

  <rect width="960" height="240" rx="28" fill="#F8FAFC"/>

  <g transform="translate(26 26)">
    <rect x="20" y="138" width="188" height="18" rx="9" fill="#D4DCE5"/>
    <rect x="38" y="82" width="24" height="74" rx="10" fill="url(#pbsBridge)"/>
    <rect x="166" y="82" width="24" height="74" rx="10" fill="url(#pbsBridge)"/>
    <path d="M50 118C70 66 104 38 114 38C124 38 158 66 178 118" stroke="url(#pbsBridge)" stroke-width="22" stroke-linecap="round"/>
    <path d="M78 116V152" stroke="#94A3B8" stroke-width="6" stroke-linecap="round"/>
    <path d="M114 92V152" stroke="#94A3B8" stroke-width="6" stroke-linecap="round"/>
    <path d="M150 116V152" stroke="#94A3B8" stroke-width="6" stroke-linecap="round"/>
    <circle cx="38" cy="147" r="12" fill="#334155"/>
    <circle cx="114" cy="38" r="12" fill="#06B6D4"/>
    <circle cx="190" cy="147" r="12" fill="#334155"/>

    <g transform="translate(186 90)">
      <ellipse cx="44" cy="52" rx="34" ry="28" fill="#5B4636"/>
      <ellipse cx="58" cy="34" rx="18" ry="16" fill="#6E5644"/>
      <circle cx="66" cy="18" r="5" fill="#6E5644"/>
      <ellipse cx="72" cy="34" rx="9" ry="7" fill="#2B211B"/>
      <circle cx="78" cy="32" r="2.5" fill="#0F172A"/>
      <rect x="74" y="37" width="6" height="12" rx="2" fill="#F8FAFC"/>
      <rect x="81" y="37" width="6" height="12" rx="2" fill="#F8FAFC"/>
      <path d="M28 72C22 84 18 98 22 108C28 102 38 98 48 96L42 74L28 72Z" fill="#0F172A"/>
      <path d="M16 62C2 80 -2 96 2 110C10 104 18 100 28 98" stroke="#334155" stroke-width="12" stroke-linecap="round"/>
      <path d="M42 78L36 102" stroke="#4B382D" stroke-width="8" stroke-linecap="round"/>
      <path d="M58 74L56 98" stroke="#4B382D" stroke-width="8" stroke-linecap="round"/>
      <path d="M24 46C18 44 14 42 10 38" stroke="#5B4636" stroke-width="8" stroke-linecap="round"/>
      <path d="M18 54C6 56 0 64 -2 74" stroke="#5B4636" stroke-width="8" stroke-linecap="round"/>
      <path d="M12 22L20 8L28 20" fill="#06B6D4"/>
      <path d="M12 22L20 8L28 20" stroke="#06B6D4" stroke-width="4" stroke-linejoin="round"/>
      <path d="M6 30H20" stroke="#06B6D4" stroke-width="6" stroke-linecap="round"/>
    </g>
  </g>

  <g transform="translate(302 0)">
    <text x="0" y="116" font-size="78" font-family="Segoe UI, Arial, sans-serif" font-weight="700" fill="url(#pbsText)">PipeBridge</text>
    <text x="3" y="164" font-size="26" font-family="Segoe UI, Arial, sans-serif" font-weight="500" fill="#5B6778">
      Unofficial Python SDK for Pipefy
    </text>
  </g>
</svg>
