<svg width="960" height="240" viewBox="0 0 960 240" fill="none" xmlns="http://www.w3.org/2000/svg">
  <defs>
    <linearGradient id="beaverMain" x1="44" y1="36" x2="212" y2="196" gradientUnits="userSpaceOnUse">
      <stop stop-color="#334155"/>
      <stop offset="1" stop-color="#06B6D4"/>
    </linearGradient>
    <linearGradient id="beaverText" x1="264" y1="56" x2="760" y2="182" gradientUnits="userSpaceOnUse">
      <stop stop-color="#0F172A"/>
      <stop offset="1" stop-color="#475569"/>
    </linearGradient>
  </defs>

  <rect width="960" height="240" rx="28" fill="#F8FAFC"/>

  <g transform="translate(30 24)">
    <rect x="16" y="112" width="176" height="20" rx="10" fill="#CBD5E1"/>
    <path d="M78 52C52 52 34 72 34 98C34 121 48 138 72 143L102 150L130 144C156 138 172 120 172 96C172 70 152 52 126 52H78Z" fill="url(#beaverMain)"/>
    <rect x="76" y="132" width="54" height="38" rx="12" fill="#F8FAFC"/>
    <rect x="82" y="138" width="18" height="26" rx="5" fill="#CBD5E1"/>
    <rect x="106" y="138" width="18" height="26" rx="5" fill="#CBD5E1"/>
    <circle cx="76" cy="92" r="8" fill="#F8FAFC"/>
    <circle cx="128" cy="92" r="8" fill="#F8FAFC"/>
    <circle cx="76" cy="92" r="3" fill="#0F172A"/>
    <circle cx="128" cy="92" r="3" fill="#0F172A"/>
    <path d="M84 114C95 120 109 120 120 114" stroke="#E2E8F0" stroke-width="6" stroke-linecap="round"/>
    <path d="M48 160C40 176 44 188 62 194L98 204C118 210 130 200 132 184L48 160Z" fill="#0F172A"/>
    <rect x="150" y="82" width="38" height="12" rx="6" transform="rotate(-18 150 82)" fill="#06B6D4"/>
  </g>

  <g transform="translate(264 0)">
    <text x="0" y="116" font-size="78" font-family="Segoe UI, Arial, sans-serif" font-weight="700" fill="url(#beaverText)">PipeBridge</text>
    <text x="3" y="164" font-size="26" font-family="Segoe UI, Arial, sans-serif" font-weight="500" fill="#5B6778">
      Builder-minded Python SDK for Pipefy
    </text>
  </g>
</svg>
