<svg width="256" height="256" viewBox="0 0 256 256" fill="none" xmlns="http://www.w3.org/2000/svg">
  <rect width="256" height="256" rx="44" fill="#F8FAFC"/>
  <ellipse cx="128" cy="144" rx="64" ry="54" fill="#4B3A30"/>
  <ellipse cx="128" cy="112" rx="42" ry="36" fill="#5D473A"/>
  <circle cx="99" cy="84" r="12" fill="#5D473A"/>
  <circle cx="157" cy="84" r="12" fill="#5D473A"/>
  <ellipse cx="128" cy="128" rx="28" ry="22" fill="#F5F7FA"/>
  <circle cx="112" cy="110" r="6" fill="#F5F7FA"/>
  <circle cx="144" cy="110" r="6" fill="#F5F7FA"/>
  <circle cx="112" cy="110" r="2.5" fill="#111827"/>
  <circle cx="144" cy="110" r="2.5" fill="#111827"/>
  <ellipse cx="128" cy="122" rx="9" ry="7" fill="#2B211B"/>
  <rect x="121" y="128" width="6" height="18" rx="2" fill="#FFFFFF"/>
  <rect x="129" y="128" width="6" height="18" rx="2" fill="#FFFFFF"/>
  <path d="M116 150C120 154 125 156 128 156C131 156 136 154 140 150" stroke="#E5E7EB" stroke-width="5" stroke-linecap="round"/>
  <path d="M80 170C56 176 42 190 44 210C64 208 83 203 98 194L80 170Z" fill="#1F2937"/>
  <path d="M92 180L98 206" stroke="#3B2F27" stroke-width="8" stroke-linecap="round"/>
  <path d="M116 188V214" stroke="#3B2F27" stroke-width="8" stroke-linecap="round"/>
  <path d="M140 188V214" stroke="#3B2F27" stroke-width="8" stroke-linecap="round"/>
</svg>
