<svg width="960" height="240" viewBox="0 0 960 240" fill="none" xmlns="http://www.w3.org/2000/svg">
  <defs>
    <linearGradient id="bridgeSlateB" x1="38" y1="42" x2="220" y2="196" gradientUnits="userSpaceOnUse">
      <stop stop-color="#334155"/>
      <stop offset="1" stop-color="#06B6D4"/>
    </linearGradient>
    <linearGradient id="bridgeSlateTextB" x1="258" y1="58" x2="744" y2="178" gradientUnits="userSpaceOnUse">
      <stop stop-color="#0F172A"/>
      <stop offset="1" stop-color="#475569"/>
    </linearGradient>
  </defs>

  <rect width="960" height="240" rx="28" fill="#F8FAFC"/>

  <g transform="translate(26 26)">
    <rect x="18" y="136" width="188" height="18" rx="9" fill="#D4DCE5"/>
    <rect x="36" y="80" width="24" height="74" rx="10" fill="url(#bridgeSlateB)"/>
    <rect x="164" y="80" width="24" height="74" rx="10" fill="url(#bridgeSlateB)"/>
    <path d="M48 116C68 64 102 36 112 36C122 36 156 64 176 116" stroke="url(#bridgeSlateB)" stroke-width="22" stroke-linecap="round"/>
    <path d="M76 114V150" stroke="#94A3B8" stroke-width="6" stroke-linecap="round"/>
    <path d="M112 90V150" stroke="#94A3B8" stroke-width="6" stroke-linecap="round"/>
    <path d="M148 114V150" stroke="#94A3B8" stroke-width="6" stroke-linecap="round"/>
    <circle cx="36" cy="145" r="12" fill="#334155"/>
    <circle cx="112" cy="36" r="12" fill="#06B6D4"/>
    <circle cx="188" cy="145" r="12" fill="#334155"/>

    <g transform="translate(132 84)">
      <path d="M16 58C16 36 34 20 56 20H68C92 20 108 36 108 58C108 78 94 92 72 96L54 100L40 96C24 92 16 76 16 58Z" fill="#334155"/>
      <rect x="44" y="88" width="24" height="22" rx="8" fill="#F8FAFC"/>
      <rect x="46" y="90" width="8" height="16" rx="3" fill="#CBD5E1"/>
      <rect x="58" y="90" width="8" height="16" rx="3" fill="#CBD5E1"/>
      <circle cx="48" cy="56" r="5" fill="#F8FAFC"/>
      <circle cx="70" cy="56" r="5" fill="#F8FAFC"/>
      <circle cx="48" cy="56" r="2" fill="#0F172A"/>
      <circle cx="70" cy="56" r="2" fill="#0F172A"/>
      <path d="M50 70C55 73 63 73 68 70" stroke="#E2E8F0" stroke-width="4" stroke-linecap="round"/>
      <path d="M110 94C122 104 120 120 108 126L88 136C74 142 64 136 62 124L110 94Z" fill="#0F172A"/>
      <rect x="0" y="60" width="24" height="8" rx="4" transform="rotate(14 0 60)" fill="#06B6D4"/>
    </g>
  </g>

  <g transform="translate(270 0)">
    <text x="0" y="116" font-size="78" font-family="Segoe UI, Arial, sans-serif" font-weight="700" fill="url(#bridgeSlateTextB)">PipeBridge</text>
    <text x="3" y="164" font-size="26" font-family="Segoe UI, Arial, sans-serif" font-weight="500" fill="#5B6778">
      Unofficial Python SDK for Pipefy
    </text>
  </g>
</svg>
