<svg width="960" height="240" viewBox="0 0 960 240" fill="none" xmlns="http://www.w3.org/2000/svg">
  <defs>
    <linearGradient id="bridgeBlue" x1="38" y1="42" x2="220" y2="196" gradientUnits="userSpaceOnUse">
      <stop stop-color="#0B7285"/>
      <stop offset="1" stop-color="#1C7ED6"/>
    </linearGradient>
    <linearGradient id="bridgeBlueText" x1="258" y1="58" x2="744" y2="178" gradientUnits="userSpaceOnUse">
      <stop stop-color="#0F172A"/>
      <stop offset="1" stop-color="#334155"/>
    </linearGradient>
  </defs>

  <rect width="960" height="240" rx="28" fill="#F8FAFC"/>

  <g transform="translate(34 34)">
    <rect x="0" y="128" width="188" height="18" rx="9" fill="#CBD5E1"/>
    <rect x="18" y="72" width="24" height="74" rx="10" fill="url(#bridgeBlue)"/>
    <rect x="146" y="72" width="24" height="74" rx="10" fill="url(#bridgeBlue)"/>
    <path d="M30 108C50 56 84 28 94 28C104 28 138 56 158 108" stroke="url(#bridgeBlue)" stroke-width="22" stroke-linecap="round"/>
    <path d="M58 106V142" stroke="#94A3B8" stroke-width="6" stroke-linecap="round"/>
    <path d="M94 82V142" stroke="#94A3B8" stroke-width="6" stroke-linecap="round"/>
    <path d="M130 106V142" stroke="#94A3B8" stroke-width="6" stroke-linecap="round"/>
    <circle cx="18" cy="137" r="12" fill="#0B7285"/>
    <circle cx="94" cy="28" r="12" fill="#1C7ED6"/>
    <circle cx="170" cy="137" r="12" fill="#0B7285"/>
  </g>

  <g transform="translate(258 0)">
    <text x="0" y="116" font-size="78" font-family="Segoe UI, Arial, sans-serif" font-weight="700" fill="url(#bridgeBlueText)">PipeBridge</text>
    <text x="3" y="164" font-size="26" font-family="Segoe UI, Arial, sans-serif" font-weight="500" fill="#475569">
      Unofficial Python SDK for Pipefy
    </text>
  </g>
</svg>
