<svg width="960" height="240" viewBox="0 0 960 240" fill="none" xmlns="http://www.w3.org/2000/svg">
  <defs>
    <linearGradient id="bridgeSlateA" x1="38" y1="42" x2="220" y2="196" gradientUnits="userSpaceOnUse">
      <stop stop-color="#334155"/>
      <stop offset="1" stop-color="#06B6D4"/>
    </linearGradient>
    <linearGradient id="bridgeSlateTextA" x1="258" y1="58" x2="744" y2="178" gradientUnits="userSpaceOnUse">
      <stop stop-color="#0F172A"/>
      <stop offset="1" stop-color="#475569"/>
    </linearGradient>
  </defs>

  <rect width="960" height="240" rx="28" fill="#F8FAFC"/>

  <g transform="translate(26 26)">
    <rect x="18" y="136" width="188" height="18" rx="9" fill="#D4DCE5"/>
    <rect x="36" y="80" width="24" height="74" rx="10" fill="url(#bridgeSlateA)"/>
    <rect x="164" y="80" width="24" height="74" rx="10" fill="url(#bridgeSlateA)"/>
    <path d="M48 116C68 64 102 36 112 36C122 36 156 64 176 116" stroke="url(#bridgeSlateA)" stroke-width="22" stroke-linecap="round"/>
    <path d="M76 114V150" stroke="#94A3B8" stroke-width="6" stroke-linecap="round"/>
    <path d="M112 90V150" stroke="#94A3B8" stroke-width="6" stroke-linecap="round"/>
    <path d="M148 114V150" stroke="#94A3B8" stroke-width="6" stroke-linecap="round"/>
    <circle cx="36" cy="145" r="12" fill="#334155"/>
    <circle cx="112" cy="36" r="12" fill="#06B6D4"/>
    <circle cx="188" cy="145" r="12" fill="#334155"/>

    <g transform="translate(-2 78)">
      <path d="M22 60C22 39 38 24 58 24H72C95 24 110 40 110 62C110 80 97 94 77 98L60 102L46 98C31 94 22 79 22 60Z" fill="#334155"/>
      <rect x="50" y="90" width="24" height="22" rx="8" fill="#F8FAFC"/>
      <rect x="52" y="92" width="8" height="16" rx="3" fill="#CBD5E1"/>
      <rect x="64" y="92" width="8" height="16" rx="3" fill="#CBD5E1"/>
      <circle cx="54" cy="58" r="5" fill="#F8FAFC"/>
      <circle cx="76" cy="58" r="5" fill="#F8FAFC"/>
      <circle cx="54" cy="58" r="2" fill="#0F172A"/>
      <circle cx="76" cy="58" r="2" fill="#0F172A"/>
      <path d="M56 72C61 75 69 75 74 72" stroke="#E2E8F0" stroke-width="4" stroke-linecap="round"/>
      <path d="M20 98C12 110 16 122 30 126L50 132C64 136 74 130 76 118L20 98Z" fill="#0F172A"/>
      <rect x="92" y="48" width="24" height="8" rx="4" transform="rotate(-18 92 48)" fill="#06B6D4"/>
    </g>
  </g>

  <g transform="translate(270 0)">
    <text x="0" y="116" font-size="78" font-family="Segoe UI, Arial, sans-serif" font-weight="700" fill="url(#bridgeSlateTextA)">PipeBridge</text>
    <text x="3" y="164" font-size="26" font-family="Segoe UI, Arial, sans-serif" font-weight="500" fill="#5B6778">
      Unofficial Python SDK for Pipefy
    </text>
  </g>
</svg>
