<svg width="256" height="256" viewBox="0 0 256 256" fill="none" xmlns="http://www.w3.org/2000/svg">
  <rect width="256" height="256" rx="44" fill="#F8FAFC"/>
  <ellipse cx="122" cy="148" rx="56" ry="42" fill="#475569"/>
  <ellipse cx="162" cy="112" rx="30" ry="27" fill="#5B6778"/>
  <circle cx="176" cy="90" r="9" fill="#5B6778"/>
  <ellipse cx="182" cy="114" rx="16" ry="12" fill="#1E293B"/>
  <circle cx="186" cy="112" r="2.5" fill="#0F172A"/>
  <circle cx="168" cy="104" r="5.5" fill="#F8FAFC"/>
  <circle cx="168" cy="104" r="2.5" fill="#0F172A"/>
  <rect x="189" y="118" width="7" height="17" rx="2" fill="#FFFFFF"/>
  <rect x="197" y="118" width="7" height="17" rx="2" fill="#FFFFFF"/>
  <path d="M146 180V208" stroke="#334155" stroke-width="8" stroke-linecap="round"/>
  <path d="M114 182V208" stroke="#334155" stroke-width="8" stroke-linecap="round"/>
  <path d="M80 170C56 178 42 194 44 214C66 212 88 206 106 194L80 170Z" fill="#06B6D4"/>
  <path d="M156 124C148 130 142 136 138 144" stroke="#CBD5E1" stroke-width="4" stroke-linecap="round"/>
</svg>
