<svg width="960" height="240" viewBox="0 0 960 240" fill="none" xmlns="http://www.w3.org/2000/svg">
  <defs>
    <linearGradient id="bridgeGreen" x1="38" y1="42" x2="220" y2="196" gradientUnits="userSpaceOnUse">
      <stop stop-color="#2B8A3E"/>
      <stop offset="1" stop-color="#74B816"/>
    </linearGradient>
    <linearGradient id="bridgeGreenText" x1="258" y1="58" x2="744" y2="178" gradientUnits="userSpaceOnUse">
      <stop stop-color="#102A1B"/>
      <stop offset="1" stop-color="#2F4F3E"/>
    </linearGradient>
  </defs>

  <rect width="960" height="240" rx="28" fill="#F7FCF9"/>

  <g transform="translate(34 34)">
    <rect x="0" y="128" width="188" height="18" rx="9" fill="#D8EADB"/>
    <rect x="18" y="72" width="24" height="74" rx="10" fill="url(#bridgeGreen)"/>
    <rect x="146" y="72" width="24" height="74" rx="10" fill="url(#bridgeGreen)"/>
    <path d="M30 108C50 56 84 28 94 28C104 28 138 56 158 108" stroke="url(#bridgeGreen)" stroke-width="22" stroke-linecap="round"/>
    <path d="M58 106V142" stroke="#9BB7A5" stroke-width="6" stroke-linecap="round"/>
    <path d="M94 82V142" stroke="#9BB7A5" stroke-width="6" stroke-linecap="round"/>
    <path d="M130 106V142" stroke="#9BB7A5" stroke-width="6" stroke-linecap="round"/>
    <circle cx="18" cy="137" r="12" fill="#2B8A3E"/>
    <circle cx="94" cy="28" r="12" fill="#74B816"/>
    <circle cx="170" cy="137" r="12" fill="#2B8A3E"/>
  </g>

  <g transform="translate(258 0)">
    <text x="0" y="116" font-size="78" font-family="Segoe UI, Arial, sans-serif" font-weight="700" fill="url(#bridgeGreenText)">PipeBridge</text>
    <text x="3" y="164" font-size="26" font-family="Segoe UI, Arial, sans-serif" font-weight="500" fill="#4B6355">
      Unofficial Python SDK for Pipefy
    </text>
  </g>
</svg>
