<svg width="256" height="256" viewBox="0 0 256 256" fill="none" xmlns="http://www.w3.org/2000/svg">
  <rect width="256" height="256" rx="44" fill="#F8FAFC"/>
  <path d="M128 58C88 58 60 88 60 132C60 176 90 206 128 206C166 206 196 176 196 132C196 88 168 58 128 58Z" fill="#334155"/>
  <path d="M128 74C99 74 78 96 78 126C78 156 101 178 128 178C155 178 178 156 178 126C178 96 157 74 128 74Z" fill="#475569"/>
  <circle cx="98" cy="80" r="10" fill="#475569"/>
  <circle cx="158" cy="80" r="10" fill="#475569"/>
  <ellipse cx="128" cy="136" rx="32" ry="24" fill="#F8FAFC"/>
  <circle cx="110" cy="118" r="6" fill="#F8FAFC"/>
  <circle cx="146" cy="118" r="6" fill="#F8FAFC"/>
  <circle cx="110" cy="118" r="2.5" fill="#111827"/>
  <circle cx="146" cy="118" r="2.5" fill="#111827"/>
  <ellipse cx="128" cy="130" rx="10" ry="8" fill="#111827"/>
  <rect x="120" y="136" width="7" height="18" rx="2" fill="#FFFFFF"/>
  <rect x="129" y="136" width="7" height="18" rx="2" fill="#FFFFFF"/>
  <path d="M114 160C120 166 125 168 128 168C131 168 136 166 142 160" stroke="#CBD5E1" stroke-width="5" stroke-linecap="round"/>
  <path d="M86 184C66 192 54 206 56 220C74 218 92 214 108 204L86 184Z" fill="#06B6D4"/>
</svg>
