<svg width="960" height="240" viewBox="0 0 960 240" fill="none" xmlns="http://www.w3.org/2000/svg">
  <defs>
    <linearGradient id="ravenMain" x1="36" y1="34" x2="214" y2="198" gradientUnits="userSpaceOnUse">
      <stop stop-color="#1E293B"/>
      <stop offset="1" stop-color="#0B7285"/>
    </linearGradient>
    <linearGradient id="ravenAccent" x1="112" y1="62" x2="178" y2="132" gradientUnits="userSpaceOnUse">
      <stop stop-color="#38BDF8"/>
      <stop offset="1" stop-color="#06B6D4"/>
    </linearGradient>
    <linearGradient id="ravenText" x1="264" y1="56" x2="760" y2="182" gradientUnits="userSpaceOnUse">
      <stop stop-color="#0F172A"/>
      <stop offset="1" stop-color="#475569"/>
    </linearGradient>
  </defs>

  <rect width="960" height="240" rx="28" fill="#F8FAFC"/>

  <g transform="translate(26 20)">
    <path d="M44 156C56 98 90 54 140 44C160 40 182 42 196 52C174 56 156 66 144 82C170 84 188 100 194 124C180 116 166 114 152 116C136 118 124 126 114 138L98 158L44 156Z" fill="url(#ravenMain)"/>
    <path d="M92 88C104 72 122 60 146 56C138 66 134 76 132 88H92Z" fill="url(#ravenAccent)"/>
    <path d="M140 132L176 150L138 156L114 178L118 150L96 132H140Z" fill="#0F172A"/>
    <circle cx="146" cy="86" r="7" fill="#F8FAFC"/>
    <circle cx="146" cy="86" r="3" fill="#0F172A"/>
    <path d="M176 94L206 104L180 114L176 94Z" fill="#06B6D4"/>
    <rect x="54" y="166" width="106" height="10" rx="5" fill="#CBD5E1"/>
  </g>

  <g transform="translate(264 0)">
    <text x="0" y="116" font-size="78" font-family="Segoe UI, Arial, sans-serif" font-weight="700" fill="url(#ravenText)">PipeBridge</text>
    <text x="3" y="164" font-size="26" font-family="Segoe UI, Arial, sans-serif" font-weight="500" fill="#5B6778">
      Precise, extensible Python integrations for Pipefy
    </text>
  </g>
</svg>
